<svg version="1.2" xmlns="http://www.w3.org/2000/svg" viewBox="0 0 500 500" width="500" height="500">
    <title>CosmiPi</title>
  <defs>
    <clipPath clipPathUnits="userSpaceOnUse" id="cp1">
      <path d="M0 500h500V0H0z"/>
    </clipPath>
    <clipPath clipPathUnits="userSpaceOnUse" id="cp2">
      <path d="M0 3.18h494v487H0z"/>
    </clipPath>
  </defs>
  <style>
    .s0{fill:#0ca0bf}
  </style>
  <g id="Clip-Path: g10" clip-path="url(#cp1)">
    <g id="g10">
      <g id="g16">
        <g id="g42">
          <g id="Clip-Path: g44" clip-path="url(#cp2)">
            <g id="g44">
              <g id="g50">
                <path id="path52" class="s0" d="M195 407c-51-15.6-91.3-57.1-105.3-108.5-1.8-6.3-8.3-10.1-14.6-8.3-6.3 1.7-10.1 8.2-8.3 14.5 16.1 59.2 62.6 107.1 121.3 125q1.7.5 3.4.5c5.1 0 9.8-3.3 11.4-8.4 1.9-6.3-1.6-12.9-7.9-14.8"/>
                <path id="path54" class="s0" d="M77.6 179.9c-2.8 5.9-.3 13 5.6 15.8 6 2.8 13 .2 15.8-5.7 25.9-54.6 81.6-89.9 141.9-89.9 86.5 0 156.9 70.4 156.9 156.9 0 60.3-35.3 116-89.9 141.9-6 2.8-8.5 9.9-5.7 15.8 2.1 4.3 6.3 6.8 10.8 6.8 1.7 0 3.4-.4 5-1.2 62.9-29.7 103.5-93.8 103.5-163.3 0-99.6-81-180.6-180.6-180.6-69.5 0-133.6 40.6-163.3 103.5"/>
                <path id="path56" d="M459.5 315.7c-2.8-5.9-9.8-8.4-15.8-5.6-5.9 2.8-8.4 9.9-5.6 15.8 27.1 57.2 30.5 104.2 9.2 125.5-21.4 21.4-68.4 18-125.6-9.1-50-23.6-104.6-63.6-153.6-112.6S79.2 226.2 55.6 176.2C28.5 119 25.1 72 46.5 50.6c21.3-21.3 68.3-17.9 125.5 9.2 5.9 2.8 13 .3 15.8-5.6 2.8-6 .3-13-5.6-15.9C113.5 5.8 59.3 4.2 29.7 33.9 0 63.5 1.6 117.7 34.1 186.3c24.7 52.4 66.4 109.3 117.3 160.2 50.8 50.9 107.7 92.6 160.1 117.2 36.1 17.1 68.1 25.7 94.7 25.7 24.1 0 43.7-7.1 57.8-21.2 29.7-29.6 28.1-83.8-4.5-152.5" style="fill:#121a1e"/>
              </g>
            </g>
          </g>
        </g>
      </g>
    </g>
  </g>
</svg>
