<svg version="1.2" xmlns="http://www.w3.org/2000/svg" viewBox="0 0 512 512" width="512" height="512"><style>.s5{fill:#2c9caf}</style><path d="M391.416 457.064h-3.112c-4.224 0 -8.384 -0.232 -12.576 -0.752 -0.328 -0.032 -0.328 -0.032 -0.688 -0.096q-2.16 -0.264 -4.32 -0.624c-0.328 -0.032 -0.328 -0.032 -0.656 -0.096a140 140 0 0 1 -20.832 -4.848q-0.952 -0.328 -1.936 -0.592 -2 -0.624 -4 -1.28l-0.952 -0.328c-10.776 -3.536 -21.224 -7.96 -31.48 -12.776q-0.328 -0.16 -0.656 -0.296a248 248 0 0 1 -15.168 -7.728q-1.376 -0.752 -2.752 -1.472a248 248 0 0 1 -13.56 -7.864q-1.64 -1.016 -3.272 -1.968a248 248 0 0 1 -13.824 -8.912l-4.456 -2.952c-4.88 -3.24 -9.6 -6.68 -14.312 -10.152q-1.176 -0.888 -2.392 -1.768a240 240 0 0 1 -8.648 -6.584l-1.672 -1.312q-4.112 -3.192 -8.12 -6.488 -0.784 -0.656 -1.576 -1.28a528 528 0 0 1 -10.32 -8.712l-2.296 -1.968a208 208 0 0 1 -6.752 -5.992q-1.112 -1.048 -2.264 -2.032c-1.704 -1.472 -3.344 -3.016 -4.976 -4.52l-1.832 -1.704q-3.152 -2.888 -6.16 -5.928a32 32 0 0 0 -1.968 -1.8c-1.472 -1.28 -2.816 -2.624 -4.192 -4q-0.392 -0.36 -0.752 -0.752 -0.816 -0.784 -1.608 -1.608 -1.216 -1.216 -2.424 -2.392 -0.784 -0.784 -1.536 -1.576l-0.72 -0.72a72 72 0 0 1 -3.768 -4.064c-0.888 -1.016 -1.864 -1.936 -2.816 -2.88a64 64 0 0 1 -4 -4.256c-0.984 -1.112 -2.032 -2.192 -3.048 -3.272q-2.16 -2.304 -4.224 -4.648l-1.968 -2.16q-1.52 -1.712 -2.952 -3.472 -1.52 -1.864 -3.144 -3.64c-1.312 -1.44 -2.552 -2.912 -3.8 -4.456a128 128 0 0 0 -2.72 -3.176 152 152 0 0 1 -4.688 -5.768q-1.44 -1.864 -2.912 -3.672 -2.392 -2.984 -4.72 -6.024 -0.888 -1.144 -1.736 -2.296a240 240 0 0 1 -6.848 -9.24l-1.968 -2.688a456 456 0 0 1 -6.952 -10.008l-0.56 -0.816c-15.424 -22.864 -29.184 -47.072 -45.296 -91.232q-0.264 -0.984 -0.56 -1.968a184 184 0 0 1 -5.336 -27.52c-0.064 -0.456 -0.064 -0.456 -0.096 -0.92 -0.36 -3.08 -0.296 -6.192 -0.328 -9.304v-0.904c0.032 -4.52 0.16 -8.88 0.952 -13.336l0.328 -2.096c0.984 -6.32 3.144 -12.608 6.024 -18.312l0.328 -0.688c2.656 -5.144 6.16 -9.568 10.152 -13.728q0.296 -0.296 0.56 -0.624c7.928 -8.384 19.52 -13.104 30.56 -15.432q0.36 -0.064 0.72 -0.16 2.84 -0.6 5.736 -0.848 0.456 -0.032 0.92 -0.096c3.344 -0.264 6.68 -0.328 10.056 -0.328h0.984c6.064 0.032 11.96 0.528 17.952 1.44q0.528 0.064 1.048 0.16c19 2.784 37.344 9.864 54.768 17.72l0.72 0.328c5.992 2.688 5.992 2.688 7.6 5.376q0.2 0.296 0.392 0.624c1.248 2.52 1.504 5.24 0.656 7.96 -1.344 2.912 -3.24 5.048 -6.224 6.256 -3.44 1.144 -6.976 0.2 -10.12 -1.344l-0.624 -0.328c-0.952 -0.456 -1.864 -0.92 -2.816 -1.344l-1.408 -0.688c-6.488 -3.144 -13.296 -5.504 -20.08 -7.864q-0.688 -0.232 -1.376 -0.488a148.8 148.8 0 0 0 -31.72 -7.04q-0.392 -0.064 -0.816 -0.096c-2.72 -0.328 -5.472 -0.296 -8.224 -0.296q-0.392 -0.032 -0.816 -0.032c-11.304 0.032 -24.08 1.936 -32.728 9.928q-0.456 0.424 -0.952 0.848c-7.504 7.008 -10.776 17.032 -11.824 26.992q-0.032 0.424 -0.096 0.848c-1.016 10.32 0.128 21.032 2.52 31.088l0.528 2.328c2.784 13.624 8.024 26.832 13.76 39.44l0.528 1.144a296 296 0 0 0 13.888 27.024l0.656 1.144a368 368 0 0 0 8.848 14.576q0.456 0.72 0.92 1.408a456 456 0 0 0 16.12 23.488l0.56 0.752q3.928 5.44 8.088 10.68 0.72 0.952 1.472 1.896 3.408 4.328 6.912 8.616l0.56 0.688c2.456 3.016 4.944 5.96 7.472 8.912q0.752 0.848 1.472 1.736 2.816 3.272 5.768 6.456 0.984 1.08 1.936 2.192c1.376 1.608 2.816 3.144 4.256 4.72q0.72 0.752 1.408 1.536 1.216 1.312 2.456 2.624 0.528 0.592 1.08 1.176a400 400 0 0 0 12.248 12.576q1.44 1.44 2.88 2.912 1.144 1.112 2.296 2.264l1.048 1.048c1.736 1.768 3.504 3.504 5.376 5.112q0.968 0.8 1.832 1.736c1.016 1.016 2.032 1.968 3.112 2.88q1.664 1.488 3.272 3.016 2.488 2.368 5.08 4.584l2.264 1.936 0.592 0.528q1.736 1.472 3.44 3.016 2.064 1.864 4.224 3.568 1.576 1.28 3.112 2.624 2.656 2.224 5.376 4.392l0.528 0.392 2.88 2.296q1.112 0.888 2.264 1.768a424 424 0 0 0 15.592 11.76q0.984 0.72 2 1.44c4.36 3.24 8.912 6.224 13.432 9.208q1.64 1.08 3.272 2.192c2.328 1.536 4.648 3.08 7.04 4.552q0.424 0.264 0.888 0.528l2.552 1.576 0.656 0.392c21.096 12.904 43.44 23.88 67.152 31.056q0.488 0.16 0.984 0.296a152 152 0 0 0 18.176 4.192q1.376 0.232 2.784 0.424 0.592 0.096 1.216 0.16c3.6 0.528 7.208 0.592 10.84 0.592q1.44 0 2.88 0.032c11.824 0.032 24.208 -2.656 33.016 -11.008 8.944 -8.912 11.728 -21.88 11.792 -34.104a96 96 0 0 0 -2.264 -21.424l-0.456 -2.328c-3.048 -16.376 -9.464 -32.328 -16.672 -47.304a10.64 10.64 0 0 1 -0.2 -7.696c1.176 -2.912 3.016 -4.648 5.896 -5.96 2.624 -0.848 5.336 -0.816 7.864 0.36 2.16 1.216 3.6 2.584 4.752 4.816q0.16 0.36 0.36 0.72c5.112 10.184 9.008 21 12.712 31.744l0.328 0.984c2.816 8.192 4.752 16.704 6.224 25.224q0.064 0.424 0.16 0.888 0.456 2.816 0.816 5.664 0.064 0.392 0.096 0.784c2.392 19.128 -0.064 39.8 -11.888 55.56 -0.36 0.456 -0.36 0.456 -0.688 0.952 -10.12 12.936 -25.256 19.952 -41.304 21.984a88 88 0 0 1 -10.448 0.424" style="fill:#010101"/><path d="M307.656 399.448a11.44 11.44 0 0 1 -4.976 -6.352c-0.392 -3.144 -0.064 -5.896 1.768 -8.52 1.536 -1.864 3.176 -2.816 5.304 -3.864q1.016 -0.488 2.032 -1.016 0.528 -0.232 1.048 -0.488a128 128 0 0 0 23.584 -15.92q0.456 -0.392 0.952 -0.752c2.784 -2.296 5.304 -4.784 7.832 -7.304l0.528 -0.528a76 76 0 0 0 6.424 -7.144q0.456 -0.56 0.92 -1.08c14.48 -16.576 23.456 -37.832 27.912 -59.192q0.064 -0.392 0.16 -0.784 0.48 -2.56 0.816 -5.112l0.128 -0.984a130.4 130.4 0 0 0 -0.128 -35.704l-0.128 -0.952c-1.704 -12.352 -5.664 -24.8 -11.008 -36.064l-0.456 -0.984a128 128 0 0 0 -7.4 -13.432q-0.2 -0.328 -0.424 -0.656a120 120 0 0 0 -11.368 -15.072q-0.392 -0.424 -0.784 -0.888 -1.08 -1.176 -2.16 -2.392 -0.456 -0.488 -0.888 -0.984a80 80 0 0 0 -7.176 -7.176l-1.864 -1.64a125.6 125.6 0 0 0 -23.16 -16.08l-0.848 -0.456c-12.352 -6.816 -25.784 -11.272 -39.64 -13.728q-0.36 -0.032 -0.72 -0.096c-7.04 -1.248 -14.088 -1.576 -21.256 -1.576h-1.248c-6.68 0.032 -13.2 0.36 -19.816 1.44l-1.176 0.2a129.6 129.6 0 0 0 -47.96 18.472q-0.328 0.2 -0.656 0.424a128 128 0 0 0 -17.296 13.336q-0.952 0.848 -1.936 1.672a80 80 0 0 0 -8.616 8.808l-0.752 0.888a120 120 0 0 0 -11.04 14.84l-0.656 0.984c-2.424 3.864 -4.584 7.896 -6.648 11.96 -1.672 3.272 -3.24 5.664 -6.784 7.04 -0.784 0.264 -0.784 0.264 -1.64 0.328l-0.688 0.064a11.68 11.68 0 0 1 -7.632 -2.424 11.52 11.52 0 0 1 -3.272 -8.384c0.232 -1.832 0.952 -3.344 1.768 -4.976l0.784 -1.608c5.144 -10.68 11.888 -20.472 19.52 -29.512q0.2 -0.264 0.424 -0.528a140 140 0 0 1 8.224 -8.848l1.936 -1.936c1.968 -1.968 3.96 -3.928 6.128 -5.736 0.296 -0.264 0.296 -0.264 0.624 -0.528 17.824 -15.136 39.44 -26.6 62.272 -31.904q0.36 -0.096 0.72 -0.16c1.704 -0.424 3.44 -0.784 5.176 -1.144 0.36 -0.064 0.36 -0.064 0.752 -0.16a144 144 0 0 1 11.632 -1.864l0.688 -0.064c5.664 -0.72 11.336 -0.92 17.032 -0.952h1.016c9.304 0.032 18.344 0.984 27.52 2.72q0.592 0.096 1.176 0.232a147.2 147.2 0 0 1 62.368 28.6l0.888 0.688a168 168 0 0 1 14.608 13.136q0.232 0.232 0.488 0.456c1.832 1.832 3.64 3.704 5.304 5.696l0.848 0.984c2.456 2.88 4.752 5.832 7.008 8.848l0.528 0.72a136 136 0 0 1 13.56 22.504q0.328 0.72 0.688 1.408c3.472 7.04 6.128 14.384 8.488 21.88q0.128 0.456 0.296 0.92c2.192 7.072 3.536 14.312 4.552 21.656 0.064 0.36 0.064 0.36 0.096 0.72q0.16 1.08 0.296 2.16 0.096 0.592 0.16 1.248c0.424 3.704 0.56 7.472 0.56 11.2q0 0.328 0.032 0.656v5.696c0 7.272 -0.128 14.384 -1.408 21.584 -0.096 0.624 -0.096 0.624 -0.232 1.28a160 160 0 0 1 -11.56 38.032q-0.2 0.424 -0.392 0.888a128 128 0 0 1 -6.816 12.872q-0.264 0.424 -0.488 0.848c-4.16 7.176 -8.976 13.76 -14.248 20.112l-0.784 0.984c-4.064 4.88 -8.448 9.696 -13.264 13.824 -1.112 0.952 -2.192 1.968 -3.272 2.984 -1.376 1.216 -2.848 2.36 -4.288 3.504q-0.392 0.296 -0.784 0.624c-28.136 22.112 -28.136 22.112 -37.8 17.528" style="fill:#0197af"/><path d="m204.176 406.128 -0.784 -0.264a144 144 0 0 1 -15.36 -6.224l-0.984 -0.456c-9.304 -4.36 -18.048 -9.96 -26.208 -16.248q-0.296 -0.232 -0.624 -0.456a104 104 0 0 1 -6.784 -5.664q-1.016 -0.952 -2.064 -1.864c-3.6 -3.144 -7.144 -6.352 -10.256 -9.992q-1.072 -1.232 -2.192 -2.424a136 136 0 0 1 -21.656 -32.264q-0.56 -1.216 -1.176 -2.424a152 152 0 0 1 -8.312 -21.24q-0.096 -0.328 -0.232 -0.688c-1.08 -3.408 -1.768 -6.52 -0.064 -9.824 1.44 -2.424 3.24 -4.224 5.896 -5.272a11.12 11.12 0 0 1 8.584 1.112c3.536 2.392 4.424 6.096 5.568 10.024 1.704 5.992 4.096 11.792 6.784 17.424l0.392 0.848a122.4 122.4 0 0 0 15.984 25.024q0.232 0.264 0.456 0.56a172 172 0 0 0 10.184 11.136q0.424 0.424 0.848 0.888c1.736 1.704 3.504 3.272 5.376 4.784q0.984 0.784 1.896 1.608c2.784 2.392 5.696 4.52 8.744 6.584q0.296 0.232 0.624 0.424a128 128 0 0 0 32.888 16.152c3.672 1.216 6.584 2.656 8.52 6.16 1.176 2.584 1.312 5.112 0.36 7.8 -1.376 3.048 -3.64 4.88 -6.648 6.256 -3.472 0.784 -6.488 -0.328 -9.76 -1.472" style="fill:#0297af"/><path d="M339.368 360.664c0.528 -1.376 1.536 -2.296 2.552 -3.312q0.296 -0.264 0.56 -0.56l1.176 -1.176 1.832 -1.832 1.144 -1.144q0.264 -0.264 0.56 -0.528c1.28 -1.28 1.28 -1.28 2 -1.28v-0.656l0.656 0.328a88 88 0 0 1 -5.632 6.024l-1.576 1.576q-0.488 0.488 -0.984 1.016c-0.456 0.424 -0.456 0.424 -0.92 0.888 -0.72 0.656 -0.72 0.656 -1.376 0.656" style="fill:#e3fbfc"/><path d="M355.088 373.112c0.488 -1.144 1.144 -1.864 2 -2.72 0.392 -0.392 0.392 -0.392 0.816 -0.784q0.392 -0.424 0.816 -0.816l0.848 -0.848q1.016 -1.016 2.064 -2.032l0.656 0.328q-2.16 2.552 -4.52 4.912l-0.592 0.592c-1.376 1.376 -1.376 1.376 -2.096 1.376" style="fill:#299db0"/><path class="s5" d="M218.824 404.224c0 -1.216 0.424 -1.864 0.984 -2.952 0.392 -1.44 0.36 -2.88 0.36 -4.36q0 -0.36 -0.032 -0.752v-1.768c1.016 1.016 1.048 1.936 1.08 3.312 0 2.488 -0.848 4.552 -2.392 6.52"/><path d="M117.272 208.992a6.4 6.4 0 0 1 -2.296 -3.928q-0.096 -1.968 0 -3.928h0.328l0.2 1.08q0.096 0.72 0.232 1.408l0.128 0.72c0.264 1.472 0.688 2.656 1.408 4z" style="fill:#35a0b2"/><path d="m362.624 365.904 -0.328 -0.984 2.296 -2.296 0.984 0.328z" style="fill:#239aae"/><path d="M214.888 406.848v-0.656q0.392 -0.032 0.784 -0.096c0.888 -0.128 0.888 -0.128 1.216 -0.848 0.128 -0.328 0.128 -0.328 0.296 -0.688 0.688 -0.56 0.688 -0.56 1.312 -0.984 -0.096 1.144 -0.424 1.376 -1.28 2.192 -1.44 1.08 -1.44 1.08 -2.328 1.08" style="fill:#1895aa"/><path d="m378.352 345.92 -0.328 -0.656c0.296 -0.656 0.296 -0.656 0.752 -1.44l0.424 -0.752a16 16 0 0 1 1.44 -2.064l0.656 0.328c-0.984 1.504 -1.936 3.016 -2.952 4.584" style="fill:#2899ac"/><path d="M393.088 317.424c-0.392 -1.312 -0.2 -2 0.328 -3.272q0.456 -0.816 0.984 -1.64c0.328 0.656 0.328 0.656 0 1.64l-0.456 1.176q-0.232 0.592 -0.488 1.176 -0.16 0.456 -0.36 0.92" style="fill:#2b9bae"/><path d="M388.504 327.904c-0.456 -1.376 0.064 -2 0.656 -3.272l0.328 -0.656h0.656a21.6 21.6 0 0 1 -1.64 3.928" style="fill:#2599ac"/><path d="M133.32 208.336c-0.328 -0.656 -0.328 -0.656 -0.096 -1.64 0.424 -0.984 0.424 -0.984 1.736 -1.64 -0.56 1.08 -1.08 2.16 -1.64 3.272" style="fill:#2398ad"/><path d="M390.472 323.648c-0.36 -1.048 -0.36 -1.28 0 -2.296 0.528 -0.752 0.528 -0.752 0.984 -1.312 -0.16 1.344 -0.296 2.456 -0.984 3.6" style="fill:#2196aa"/><path class="s5" d="M324.624 395.712v-0.984c0.92 -0.528 0.92 -0.528 1.968 -0.984l0.984 0.328c-0.984 0.56 -1.936 1.08 -2.952 1.64"/></svg>