<svg version="1.2" xmlns="http://www.w3.org/2000/svg" viewBox="0 0 1563 1563" width="1563" height="1563"><style>.s5{fill:#2c9caf}</style><path d="M1194.9 1395.3h-9.5c-12.9 0-25.6-.7-38.4-2.3-1-.1-1-.1-2.1-.3q-6.6-.8-13.2-1.9c-1-.1-1-.1-2-.3-21.6-3.4-42.9-8.2-63.6-14.8q-2.9-1-5.9-1.8-6.1-1.9-12.2-3.9-1.4-.5-2.9-1c-32.9-10.8-64.8-24.3-96.1-39q-1-.5-2-.9c-15.7-7.4-31.1-15.1-46.3-23.6q-4.2-2.3-8.4-4.5c-14.1-7.5-27.8-15.6-41.4-24q-5-3.1-10-6c-14.4-8.4-28.3-17.8-42.2-27.2l-13.6-9c-14.9-9.9-29.3-20.4-43.7-31q-3.6-2.7-7.3-5.4c-9-6.6-17.8-13.2-26.4-20.1q-2.6-2-5.1-4c-8.4-6.5-16.6-13.1-24.8-19.8q-2.4-2-4.8-3.9c-10.6-8.7-21.1-17.6-31.5-26.6l-7-6c-7.1-6-13.9-12.1-20.6-18.3q-3.4-3.2-6.9-6.2c-5.2-4.5-10.2-9.2-15.2-13.8l-5.6-5.2c-6.4-5.9-12.7-11.9-18.8-18.1-1.9-1.9-3.9-3.7-6-5.5-4.5-3.9-8.6-8-12.8-12.2q-1.2-1.1-2.3-2.3-2.5-2.4-4.9-4.9-3.7-3.7-7.4-7.3-2.4-2.4-4.7-4.8l-2.2-2.2c-4-4-7.8-8.1-11.5-12.4-2.7-3.1-5.7-5.9-8.6-8.8-4.3-4.2-8.3-8.4-12.2-13-3-3.4-6.2-6.7-9.3-10-4.4-4.7-8.7-9.4-12.9-14.2l-6-6.6c-3.1-3.5-6.1-7-9-10.6q-4.65-5.7-9.6-11.1c-4-4.4-7.8-8.9-11.6-13.6-2.7-3.3-5.5-6.5-8.3-9.7-4.9-5.8-9.7-11.6-14.3-17.6-2.9-3.8-5.9-7.5-8.9-11.2q-7.3-9.1-14.4-18.4-2.7-3.5-5.3-7c-7.2-9.3-14.2-18.6-20.9-28.2l-6-8.2C351 806.5 344 796.3 337 786c-.8-1.2-.8-1.2-1.7-2.5C288.2 713.7 246.2 639.8 197 505q-.8-3-1.7-6c-7.7-27.7-12.9-55.5-16.3-84-.2-1.4-.2-1.4-.3-2.8-1.1-9.4-.9-18.9-1-28.4V381c.1-13.8.5-27.1 2.9-40.7l1-6.4c3-19.3 9.6-38.5 18.4-55.9q.5-1 1-2.1c8.1-15.7 18.8-29.2 31-41.9q.9-.9 1.7-1.9c24.2-25.6 59.6-40 93.3-47.1q1.1-.2 2.2-.5c5.8-1.2 11.6-2.1 17.5-2.6q1.4-.1 2.8-.3c10.2-.8 20.4-1 30.7-1h3c18.5.1 36.5 1.6 54.8 4.4q1.6.2 3.2.5c58 8.5 114 30.1 167.2 54.1l2.2 1c18.3 8.2 18.3 8.2 23.2 16.4q.6.9 1.2 1.9c3.8 7.7 4.6 16 2 24.3-4.1 8.9-9.9 15.4-19 19.1-10.5 3.5-21.3.6-30.9-4.1q-.9-.5-1.9-1c-2.9-1.4-5.7-2.8-8.6-4.1q-2.2-1.1-4.3-2.1c-19.8-9.6-40.6-16.8-61.3-24q-2.1-.7-4.2-1.5C475.4 254.7 443 247.7 410 244q-1.2-.2-2.5-.3c-8.3-1-16.7-.9-25.1-.9q-1.2-.1-2.5-.1c-34.5.1-73.5 5.9-99.9 30.3q-1.4 1.3-2.9 2.6c-22.9 21.4-32.9 52-36.1 82.4q-.1 1.3-.3 2.6c-3.1 31.5.4 64.2 7.7 94.9q.8 3.5 1.6 7.1c8.5 41.6 24.5 81.9 42 120.4q.8 1.7 1.6 3.5c12.8 28.2 26.8 55.7 42.4 82.5q1 1.7 2 3.5c8.7 15 17.6 29.9 27 44.5q1.4 2.2 2.8 4.3c15.6 24.4 32.1 48.3 49.2 71.7q.8 1.1 1.7 2.3 12 16.6 24.7 32.6 2.2 2.9 4.5 5.8c6.9 8.8 14 17.6 21.1 26.3q.9 1.1 1.7 2.1c7.5 9.2 15.1 18.2 22.8 27.2q2.3 2.6 4.5 5.3 8.6 10 17.6 19.7 3 3.3 5.9 6.7c4.2 4.9 8.6 9.6 13 14.4q2.2 2.3 4.3 4.7 3.7 4 7.5 8 1.6 1.8 3.3 3.6c12.1 13.1 24.7 25.8 37.4 38.4q4.4 4.4 8.8 8.9 3.5 3.4 7 6.9l3.2 3.2c5.3 5.4 10.7 10.7 16.4 15.6 2 1.6 3.8 3.4 5.6 5.3 3.1 3.1 6.2 6 9.5 8.8 3.4 3 6.7 6.1 10 9.2 5.1 4.8 10.2 9.5 15.5 14q3.4 2.9 6.9 5.9l1.8 1.6q5.3 4.5 10.5 9.2c4.2 3.8 8.5 7.4 12.9 10.9q4.8 3.9 9.5 8 8.1 6.8 16.4 13.4l1.6 1.2 8.8 7q3.4 2.7 6.9 5.4c15.6 12.3 31.4 24.3 47.6 35.9q3 2.2 6.1 4.4c13.3 9.9 27.2 19 41 28.1q5 3.3 10 6.7c7.1 4.7 14.2 9.4 21.5 13.9q1.3.8 2.7 1.6l7.8 4.8 2 1.2c64.4 39.4 132.6 72.9 205 94.8q1.5.5 3 .9c17.4 5.3 35 9.1 52.9 12.3 1.3.2 1.3.2 2.6.5q4.2.7 8.5 1.3 1.8.3 3.7.5c11 1.6 22 1.8 33.1 1.8q4.4 0 8.8.1c36.1.1 73.9-8.1 100.8-33.6 27.3-27.2 35.8-66.8 36-104.1.1-22.1-2.1-43.8-6.9-65.4q-.7-3.5-1.4-7.1c-9.3-50-28.9-98.7-50.9-144.4-3.3-7.6-3.2-15.6-.6-23.5 3.6-8.9 9.2-14.2 18-18.2 8-2.6 16.3-2.5 24 1.1 6.6 3.7 11 7.9 14.5 14.7q.5 1.1 1.1 2.2c15.6 31.1 27.5 64.1 38.8 96.9l1 3c8.6 25 14.5 51 19 77q.2 1.3.5 2.7 1.4 8.6 2.5 17.3.2 1.2.3 2.4c7.3 58.4-.2 121.5-36.3 169.6-1.1 1.4-1.1 1.4-2.1 2.9-30.9 39.5-77.1 60.9-126.1 67.1-10.6 1.2-21.2 1.4-31.9 1.3" style="fill:#010101"/><path d="M939.2 1219.4c-7.2-4.5-12.7-11.2-15.2-19.4-1.2-9.6-.2-18 5.4-26 4.7-5.7 9.7-8.6 16.2-11.8q3.1-1.5 6.2-3.1 1.6-.7 3.2-1.5c25.8-13.3 49.8-30 72-48.6q1.4-1.2 2.9-2.3c8.5-7 16.2-14.6 23.9-22.3l1.6-1.6c7-6.9 13.5-14.1 19.6-21.8q1.4-1.7 2.8-3.3c44.2-50.6 71.6-115.5 85.2-180.7q.2-1.2.5-2.4c1-5.2 1.8-10.4 2.5-15.6l.4-3c4.8-35.7 4.8-73.3-.4-109-.2-1.4-.2-1.4-.4-2.9-5.2-37.7-17.3-75.7-33.6-110.1l-1.4-3c-6.8-14.1-14.2-27.8-22.6-41q-.6-1-1.3-2c-10.3-16.2-21.9-31.6-34.7-46q-1.2-1.3-2.4-2.7-3.3-3.6-6.6-7.3-1.4-1.5-2.7-3c-7-7.7-14-15.2-21.9-21.9q-2.8-2.5-5.7-5c-21.5-19.1-45.5-35.3-70.7-49.1l-2.6-1.4c-37.7-20.8-78.7-34.4-121-41.9q-1.1-.1-2.2-.3c-21.5-3.8-43-4.8-64.9-4.8h-3.8c-20.4.1-40.3 1.1-60.5 4.4l-3.6.6c-51.7 8.6-102.3 28.3-146.4 56.4q-1 .6-2 1.3c-18.8 12-36.3 25.7-52.8 40.7q-2.9 2.6-5.9 5.1c-9.4 8.2-18.3 17.3-26.3 26.9q-1.1 1.3-2.3 2.7c-12.4 14.2-23.6 29.4-33.7 45.3l-2 3c-7.4 11.8-14 24.1-20.3 36.5-5.1 10-9.9 17.3-20.7 21.5-2.4.8-2.4.8-5 1q-1 .1-2.1.2c-8.5.5-16.5-2.4-23.3-7.4-6.8-7.3-10.2-15.8-10-25.6.7-5.6 2.9-10.2 5.4-15.2q1.2-2.5 2.4-4.9c15.7-32.6 36.3-62.5 59.6-90.1q.6-.8 1.3-1.6c8-9.4 16.3-18.3 25.1-27l5.9-5.9c6-6 12.1-12 18.7-17.5.9-.8.9-.8 1.9-1.6 54.4-46.2 120.4-81.2 190.1-97.4q1.1-.3 2.2-.5c5.2-1.3 10.5-2.4 15.8-3.5 1.1-.2 1.1-.2 2.3-.5 11.8-2.5 23.6-4.2 35.5-5.7q1-.1 2.1-.2c17.3-2.2 34.6-2.8 52-2.9h3.1c28.4.1 56 3 84 8.3q1.8.3 3.6.7c69.1 13.4 135.1 43.9 190.4 87.3q1.3 1 2.7 2.1c15.7 12.4 30.4 25.9 44.6 40.1q.7.7 1.5 1.4c5.6 5.6 11.1 11.3 16.2 17.4l2.6 3c7.5 8.8 14.5 17.8 21.4 27l1.6 2.2c16.1 21.5 29.7 44.6 41.4 68.7q1 2.2 2.1 4.3c10.6 21.5 18.7 43.9 25.9 66.8q.4 1.4.9 2.8c6.7 21.6 10.8 43.7 13.9 66.1.2 1.1.2 1.1.3 2.2q.5 3.3.9 6.6.3 1.8.5 3.8c1.3 11.3 1.7 22.8 1.7 34.2q0 1 .1 2v17.4c0 22.2-.4 43.9-4.3 65.9-.3 1.9-.3 1.9-.7 3.9-6.8 40.3-18.9 78.8-35.3 116.1q-.6 1.3-1.2 2.7c-6 13.6-13.3 26.5-20.8 39.3q-.8 1.3-1.5 2.6c-12.7 21.9-27.4 42-43.5 61.4l-2.4 3c-12.4 14.9-25.8 29.6-40.5 42.2-3.4 2.9-6.7 6-10 9.1-4.2 3.7-8.7 7.2-13.1 10.7q-1.2.9-2.4 1.9c-85.9 67.5-85.9 67.5-115.4 53.5" style="fill:#0197af"/><path d="m623.3 1239.8-2.4-.8c-16.1-5.4-31.6-11.8-46.9-19l-3-1.4c-28.4-13.3-55.1-30.4-80-49.6q-.9-.7-1.9-1.4c-7.2-5.5-14-11.2-20.7-17.3q-3.1-2.9-6.3-5.7c-11-9.6-21.8-19.4-31.3-30.5-2.2-2.5-4.4-5-6.7-7.4-26.4-29.1-49.2-63.1-66.1-98.5q-1.7-3.7-3.6-7.4C344.1 979.9 336 958.2 329 936q-.3-1-.7-2.1c-3.3-10.4-5.4-19.9-.2-30 4.4-7.4 9.9-12.9 18-16.1 9.4-2.3 17.8-1.4 26.2 3.4 10.8 7.3 13.5 18.6 17 30.6 5.2 18.3 12.5 36 20.7 53.2l1.2 2.6c13 27.4 29.6 53 48.8 76.4q.7.8 1.4 1.7c9.8 11.8 20.2 23 31.1 34q1.3 1.3 2.6 2.7c5.3 5.2 10.7 10 16.4 14.6q3 2.4 5.8 4.9c8.5 7.3 17.4 13.8 26.7 20.1q.9.7 1.9 1.3c30.9 21.3 64.8 37.7 100.4 49.3 11.2 3.7 20.1 8.1 26 18.8 3.6 7.9 4 15.6 1.1 23.8-4.2 9.3-11.1 14.9-20.3 19.1-10.6 2.4-19.8-1-29.8-4.5" style="fill:#0297af"/><path d="M1036 1101c1.6-4.2 4.7-7 7.8-10.1q.9-.8 1.7-1.7l3.6-3.6 5.6-5.6 3.5-3.5q.8-.8 1.7-1.6c3.9-3.9 3.9-3.9 6.1-3.9v-2l2 1c-5.4 6.5-11.3 12.5-17.2 18.4l-4.8 4.8q-1.5 1.5-3 3.1c-1.4 1.3-1.4 1.3-2.8 2.7-2.2 2-2.2 2-4.2 2" style="fill:#e3fbfc"/><path d="M1084 1139c1.5-3.5 3.5-5.7 6.1-8.3 1.2-1.2 1.2-1.2 2.5-2.4q1.2-1.3 2.5-2.5l2.6-2.6q3.1-3.1 6.3-6.2l2 1q-6.6 7.8-13.8 15l-1.8 1.8c-4.2 4.2-4.2 4.2-6.4 4.2" style="fill:#299db0"/><path class="s5" d="M668 1234c0-3.7 1.3-5.7 3-9 1.2-4.4 1.1-8.8 1.1-13.3q0-1.1-.1-2.3v-5.4c3.1 3.1 3.2 5.9 3.3 10.1 0 7.6-2.6 13.9-7.3 19.9"/><path d="M358 638c-4-3.3-5.9-7-7-12q-.3-6 0-12h1q.3 1.6.6 3.3.3 2.2.7 4.3l.4 2.2c.8 4.5 2.1 8.1 4.3 12.2z" style="fill:#35a0b2"/><path d="m1107 1117-1-3 7-7 3 1z" style="fill:#239aae"/><path d="M656 1242v-2q1.2-.1 2.4-.3c2.7-.4 2.7-.4 3.7-2.6.4-1 .4-1 .9-2.1 2.1-1.7 2.1-1.7 4-3-.3 3.5-1.3 4.2-3.9 6.7-4.4 3.3-4.4 3.3-7.1 3.3" style="fill:#1895aa"/><path d="m1155 1056-1-2c.9-2 .9-2 2.3-4.4.6-1.1.6-1.1 1.3-2.3 1.3-2.2 2.8-4.3 4.4-6.3l2 1c-3 4.6-5.9 9.2-9 14" style="fill:#2899ac"/><path d="M1200 969c-1.2-4-.6-6.1 1-10q1.4-2.5 3-5c1 2 1 2 0 5l-1.4 3.6q-.7 1.8-1.5 3.6-.5 1.4-1.1 2.8" style="fill:#2b9bae"/><path d="M1186 1001c-1.4-4.2.2-6.1 2-10l1-2h2c-1.3 4.2-2.9 8.1-5 12" style="fill:#2599ac"/><path d="M407 636c-1-2-1-2-.3-5 1.3-3 1.3-3 5.3-5-1.7 3.3-3.3 6.6-5 10" style="fill:#2398ad"/><path d="M1192 988c-1.1-3.2-1.1-3.9 0-7 1.6-2.3 1.6-2.3 3-4-.5 4.1-.9 7.5-3 11" style="fill:#2196aa"/><path class="s5" d="M991 1208v-3c2.8-1.6 2.8-1.6 6-3l3 1c-3 1.7-5.9 3.3-9 5"/></svg>