<svg version="1.2" xmlns="http://www.w3.org/2000/svg" viewBox="0 0 64 64" width="64" height="64"><style>.s5{fill:#2c9caf}</style><path d="M48.927 57.133h-0.389c-0.528 0 -1.048 -0.029 -1.572 -0.094 -0.041 -0.004 -0.041 -0.004 -0.086 -0.012q-0.27 -0.033 -0.54 -0.078c-0.041 -0.004 -0.041 -0.004 -0.082 -0.012 -0.884 -0.139 -1.757 -0.336 -2.604 -0.606q-0.119 -0.041 -0.242 -0.074 -0.25 -0.078 -0.5 -0.16 -0.057 -0.02 -0.119 -0.041c-1.347 -0.442 -2.653 -0.995 -3.935 -1.597q-0.041 -0.02 -0.082 -0.037c-0.643 -0.303 -1.273 -0.618 -1.896 -0.966q-0.172 -0.094 -0.344 -0.184c-0.577 -0.307 -1.138 -0.639 -1.695 -0.983q-0.205 -0.127 -0.409 -0.246c-0.59 -0.344 -1.159 -0.729 -1.728 -1.114l-0.557 -0.369c-0.61 -0.405 -1.2 -0.835 -1.789 -1.269q-0.147 -0.111 -0.299 -0.221c-0.369 -0.27 -0.729 -0.54 -1.081 -0.823q-0.106 -0.082 -0.209 -0.164c-0.344 -0.266 -0.68 -0.536 -1.015 -0.811q-0.098 -0.082 -0.197 -0.16c-0.434 -0.356 -0.864 -0.721 -1.29 -1.089l-0.287 -0.246c-0.291 -0.246 -0.569 -0.495 -0.844 -0.749q-0.139 -0.131 -0.283 -0.254c-0.213 -0.184 -0.418 -0.377 -0.622 -0.565l-0.229 -0.213c-0.262 -0.242 -0.52 -0.487 -0.77 -0.741 -0.078 -0.078 -0.16 -0.152 -0.246 -0.225 -0.184 -0.16 -0.352 -0.328 -0.524 -0.5q-0.049 -0.045 -0.094 -0.094 -0.102 -0.098 -0.201 -0.201 -0.152 -0.152 -0.303 -0.299 -0.098 -0.098 -0.192 -0.197l-0.09 -0.09c-0.164 -0.164 -0.319 -0.332 -0.471 -0.508 -0.111 -0.127 -0.233 -0.242 -0.352 -0.36 -0.176 -0.172 -0.34 -0.344 -0.5 -0.532 -0.123 -0.139 -0.254 -0.274 -0.381 -0.409 -0.18 -0.192 -0.356 -0.385 -0.528 -0.581l-0.246 -0.27c-0.127 -0.143 -0.25 -0.287 -0.369 -0.434q-0.19 -0.233 -0.393 -0.455c-0.164 -0.18 -0.319 -0.364 -0.475 -0.557 -0.111 -0.135 -0.225 -0.266 -0.34 -0.397 -0.201 -0.237 -0.397 -0.475 -0.586 -0.721 -0.119 -0.156 -0.242 -0.307 -0.364 -0.459q-0.299 -0.373 -0.59 -0.753 -0.111 -0.143 -0.217 -0.287c-0.295 -0.381 -0.581 -0.762 -0.856 -1.155l-0.246 -0.336C14.372 33.024 14.086 32.606 13.799 32.184c-0.033 -0.049 -0.033 -0.049 -0.07 -0.102C11.801 29.224 10.081 26.198 8.067 20.678q-0.033 -0.123 -0.07 -0.246c-0.315 -1.134 -0.528 -2.273 -0.667 -3.44 -0.008 -0.057 -0.008 -0.057 -0.012 -0.115 -0.045 -0.385 -0.037 -0.774 -0.041 -1.163V15.601c0.004 -0.565 0.02 -1.11 0.119 -1.667l0.041 -0.262c0.123 -0.79 0.393 -1.576 0.753 -2.289q0.02 -0.041 0.041 -0.086c0.332 -0.643 0.77 -1.196 1.269 -1.716q0.037 -0.037 0.07 -0.078c0.991 -1.048 2.44 -1.638 3.82 -1.929q0.045 -0.008 0.09 -0.02c0.237 -0.049 0.475 -0.086 0.717 -0.106q0.057 -0.004 0.115 -0.012c0.418 -0.033 0.835 -0.041 1.257 -0.041h0.123c0.758 0.004 1.495 0.066 2.244 0.18q0.066 0.008 0.131 0.02c2.375 0.348 4.668 1.233 6.846 2.215l0.09 0.041c0.749 0.336 0.749 0.336 0.95 0.672q0.025 0.037 0.049 0.078c0.156 0.315 0.188 0.655 0.082 0.995 -0.168 0.364 -0.405 0.631 -0.778 0.782 -0.43 0.143 -0.872 0.025 -1.265 -0.168q-0.037 -0.02 -0.078 -0.041c-0.119 -0.057 -0.233 -0.115 -0.352 -0.168q-0.09 -0.045 -0.176 -0.086c-0.811 -0.393 -1.662 -0.688 -2.51 -0.983q-0.086 -0.029 -0.172 -0.061C19.466 10.429 18.139 10.143 16.788 9.991q-0.049 -0.008 -0.102 -0.012c-0.34 -0.041 -0.684 -0.037 -1.028 -0.037q-0.049 -0.004 -0.102 -0.004c-1.413 0.004 -3.01 0.242 -4.091 1.241q-0.057 0.053 -0.119 0.106c-0.938 0.876 -1.347 2.129 -1.478 3.374q-0.004 0.053 -0.012 0.106c-0.127 1.29 0.016 2.629 0.315 3.886q0.033 0.143 0.066 0.291c0.348 1.703 1.003 3.354 1.72 4.93q0.033 0.07 0.066 0.143c0.524 1.155 1.097 2.281 1.736 3.378q0.041 0.07 0.082 0.143c0.356 0.614 0.721 1.224 1.106 1.822q0.057 0.09 0.115 0.176c0.639 0.999 1.314 1.978 2.015 2.936q0.033 0.045 0.07 0.094 0.491 0.68 1.011 1.335 0.09 0.119 0.184 0.237c0.283 0.36 0.573 0.721 0.864 1.077q0.037 0.045 0.07 0.086c0.307 0.377 0.618 0.745 0.934 1.114q0.094 0.106 0.184 0.217 0.352 0.409 0.721 0.807 0.123 0.135 0.242 0.274c0.172 0.201 0.352 0.393 0.532 0.59q0.09 0.094 0.176 0.192 0.152 0.164 0.307 0.328 0.066 0.074 0.135 0.147c0.495 0.536 1.011 1.056 1.531 1.572q0.18 0.18 0.36 0.364 0.143 0.139 0.287 0.283l0.131 0.131c0.217 0.221 0.438 0.438 0.672 0.639 0.082 0.066 0.156 0.139 0.229 0.217 0.127 0.127 0.254 0.246 0.389 0.36 0.139 0.123 0.274 0.25 0.409 0.377 0.209 0.197 0.418 0.389 0.635 0.573q0.139 0.119 0.283 0.242l0.074 0.066q0.217 0.184 0.43 0.377c0.172 0.156 0.348 0.303 0.528 0.446q0.197 0.16 0.389 0.328 0.332 0.278 0.672 0.549l0.066 0.049 0.36 0.287q0.139 0.111 0.283 0.221c0.639 0.504 1.286 0.995 1.949 1.47q0.123 0.09 0.25 0.18c0.545 0.405 1.114 0.778 1.679 1.151q0.205 0.135 0.409 0.274c0.291 0.192 0.581 0.385 0.88 0.569q0.053 0.033 0.111 0.066l0.319 0.197 0.082 0.049c2.637 1.613 5.43 2.985 8.394 3.882q0.061 0.02 0.123 0.037c0.712 0.217 1.433 0.373 2.166 0.504 0.053 0.008 0.053 0.008 0.106 0.02q0.172 0.029 0.348 0.053 0.074 0.012 0.152 0.02c0.45 0.066 0.901 0.074 1.355 0.074q0.18 0 0.36 0.004c1.478 0.004 3.026 -0.332 4.127 -1.376 1.118 -1.114 1.466 -2.735 1.474 -4.263 0.004 -0.905 -0.086 -1.793 -0.283 -2.678q-0.029 -0.143 -0.057 -0.291c-0.381 -2.047 -1.183 -4.041 -2.084 -5.913 -0.135 -0.311 -0.131 -0.639 -0.025 -0.962 0.147 -0.364 0.377 -0.581 0.737 -0.745 0.328 -0.106 0.667 -0.102 0.983 0.045 0.27 0.152 0.45 0.323 0.594 0.602q0.02 0.045 0.045 0.09c0.639 1.273 1.126 2.625 1.589 3.968l0.041 0.123c0.352 1.024 0.594 2.088 0.778 3.153q0.008 0.053 0.02 0.111 0.057 0.352 0.102 0.708 0.008 0.049 0.012 0.098c0.299 2.391 -0.008 4.975 -1.486 6.945 -0.045 0.057 -0.045 0.057 -0.086 0.119 -1.265 1.617 -3.157 2.494 -5.163 2.748 -0.434 0.049 -0.868 0.057 -1.306 0.053" style="fill:#010101"/><path d="M38.457 49.931c-0.295 -0.184 -0.52 -0.459 -0.622 -0.794 -0.049 -0.393 -0.008 -0.737 0.221 -1.065 0.192 -0.233 0.397 -0.352 0.663 -0.483q0.127 -0.061 0.254 -0.127 0.066 -0.029 0.131 -0.061c1.056 -0.545 2.039 -1.228 2.948 -1.99q0.057 -0.049 0.119 -0.094c0.348 -0.287 0.663 -0.598 0.979 -0.913l0.066 -0.066c0.287 -0.283 0.553 -0.577 0.803 -0.893q0.057 -0.07 0.115 -0.135c1.81 -2.072 2.932 -4.729 3.489 -7.399q0.008 -0.049 0.02 -0.098c0.041 -0.213 0.074 -0.426 0.102 -0.639l0.016 -0.123c0.197 -1.462 0.197 -3.001 -0.016 -4.463 -0.008 -0.057 -0.008 -0.057 -0.016 -0.119 -0.213 -1.544 -0.708 -3.1 -1.376 -4.508l-0.057 -0.123c-0.278 -0.577 -0.581 -1.138 -0.925 -1.679q-0.025 -0.041 -0.053 -0.082c-0.422 -0.663 -0.897 -1.294 -1.421 -1.884q-0.049 -0.053 -0.098 -0.111 -0.135 -0.147 -0.27 -0.299 -0.057 -0.061 -0.111 -0.123c-0.287 -0.315 -0.573 -0.622 -0.897 -0.897q-0.115 -0.102 -0.233 -0.205c-0.88 -0.782 -1.863 -1.445 -2.895 -2.01l-0.106 -0.057c-1.544 -0.852 -3.223 -1.409 -4.955 -1.716q-0.045 -0.004 -0.09 -0.012c-0.88 -0.156 -1.761 -0.197 -2.657 -0.197h-0.156c-0.835 0.004 -1.65 0.045 -2.477 0.18l-0.147 0.025c-2.117 0.352 -4.189 1.159 -5.995 2.309q-0.041 0.025 -0.082 0.053c-0.77 0.491 -1.486 1.052 -2.162 1.667q-0.119 0.106 -0.242 0.209c-0.385 0.336 -0.749 0.708 -1.077 1.101q-0.045 0.053 -0.094 0.111c-0.508 0.581 -0.966 1.204 -1.38 1.855l-0.082 0.123c-0.303 0.483 -0.573 0.987 -0.831 1.495 -0.209 0.409 -0.405 0.708 -0.848 0.88 -0.098 0.033 -0.098 0.033 -0.205 0.041q-0.041 0.004 -0.086 0.008c-0.348 0.02 -0.676 -0.098 -0.954 -0.303 -0.278 -0.299 -0.418 -0.647 -0.409 -1.048 0.029 -0.229 0.119 -0.418 0.221 -0.622q0.049 -0.102 0.098 -0.201c0.643 -1.335 1.486 -2.559 2.44 -3.689q0.025 -0.033 0.053 -0.066c0.328 -0.385 0.667 -0.749 1.028 -1.106l0.242 -0.242c0.246 -0.246 0.495 -0.491 0.766 -0.717 0.037 -0.033 0.037 -0.033 0.078 -0.066 2.228 -1.892 4.93 -3.325 7.784 -3.988q0.045 -0.012 0.09 -0.02c0.213 -0.053 0.43 -0.098 0.647 -0.143 0.045 -0.008 0.045 -0.008 0.094 -0.02 0.483 -0.102 0.966 -0.172 1.454 -0.233q0.041 -0.004 0.086 -0.008c0.708 -0.09 1.417 -0.115 2.129 -0.119h0.127c1.163 0.004 2.293 0.123 3.44 0.34q0.074 0.012 0.147 0.029c2.829 0.549 5.532 1.798 7.796 3.575q0.053 0.041 0.111 0.086c0.643 0.508 1.245 1.061 1.826 1.642q0.029 0.029 0.061 0.057c0.229 0.229 0.455 0.463 0.663 0.712l0.106 0.123c0.307 0.36 0.594 0.729 0.876 1.106l0.066 0.09c0.659 0.88 1.216 1.826 1.695 2.813q0.041 0.09 0.086 0.176c0.434 0.88 0.766 1.798 1.061 2.735q0.016 0.057 0.037 0.115c0.274 0.884 0.442 1.789 0.569 2.707 0.008 0.045 0.008 0.045 0.012 0.09q0.02 0.135 0.037 0.27 0.012 0.074 0.02 0.156c0.053 0.463 0.07 0.934 0.07 1.4q0 0.041 0.004 0.082v0.712c0 0.909 -0.016 1.798 -0.176 2.698 -0.012 0.078 -0.012 0.078 -0.029 0.16 -0.278 1.65 -0.774 3.227 -1.445 4.754q-0.025 0.053 -0.049 0.111c-0.246 0.557 -0.545 1.085 -0.852 1.609q-0.033 0.053 -0.061 0.106c-0.52 0.897 -1.122 1.72 -1.781 2.514l-0.098 0.123c-0.508 0.61 -1.056 1.212 -1.658 1.728 -0.139 0.119 -0.274 0.246 -0.409 0.373 -0.172 0.152 -0.356 0.295 -0.536 0.438q-0.049 0.037 -0.098 0.078c-3.517 2.764 -3.517 2.764 -4.725 2.191" style="fill:#0197af"/><path d="m25.522 50.766 -0.098 -0.033c-0.659 -0.221 -1.294 -0.483 -1.92 -0.778l-0.123 -0.057c-1.163 -0.545 -2.256 -1.245 -3.276 -2.031q-0.037 -0.029 -0.078 -0.057c-0.295 -0.225 -0.573 -0.459 -0.848 -0.708q-0.127 -0.119 -0.258 -0.233c-0.45 -0.393 -0.893 -0.794 -1.282 -1.249 -0.09 -0.102 -0.18 -0.205 -0.274 -0.303 -1.081 -1.192 -2.015 -2.584 -2.707 -4.033q-0.07 -0.152 -0.147 -0.303C14.09 40.124 13.758 39.235 13.472 38.326q-0.012 -0.041 -0.029 -0.086c-0.135 -0.426 -0.221 -0.815 -0.008 -1.228 0.18 -0.303 0.405 -0.528 0.737 -0.659 0.385 -0.094 0.729 -0.057 1.073 0.139 0.442 0.299 0.553 0.762 0.696 1.253 0.213 0.749 0.512 1.474 0.848 2.178l0.049 0.106c0.532 1.122 1.212 2.17 1.998 3.128q0.029 0.033 0.057 0.07c0.401 0.483 0.827 0.942 1.273 1.392q0.053 0.053 0.106 0.111c0.217 0.213 0.438 0.409 0.672 0.598q0.123 0.098 0.237 0.201c0.348 0.299 0.712 0.565 1.093 0.823q0.037 0.029 0.078 0.053c1.265 0.872 2.653 1.544 4.111 2.019 0.459 0.152 0.823 0.332 1.065 0.77 0.147 0.323 0.164 0.639 0.045 0.975 -0.172 0.381 -0.455 0.61 -0.831 0.782 -0.434 0.098 -0.811 -0.041 -1.22 -0.184" style="fill:#0297af"/><path d="M42.421 45.083c0.066 -0.172 0.192 -0.287 0.319 -0.414q0.037 -0.033 0.07 -0.07l0.147 -0.147 0.229 -0.229 0.143 -0.143q0.033 -0.033 0.07 -0.066c0.16 -0.16 0.16 -0.16 0.25 -0.16v-0.082l0.082 0.041c-0.221 0.266 -0.463 0.512 -0.704 0.753l-0.197 0.197q-0.061 0.061 -0.123 0.127c-0.057 0.053 -0.057 0.053 -0.115 0.111 -0.09 0.082 -0.09 0.082 -0.172 0.082" style="fill:#e3fbfc"/><path d="M44.386 46.639c0.061 -0.143 0.143 -0.233 0.25 -0.34 0.049 -0.049 0.049 -0.049 0.102 -0.098q0.049 -0.053 0.102 -0.102l0.106 -0.106q0.127 -0.127 0.258 -0.254l0.082 0.041q-0.27 0.319 -0.565 0.614l-0.074 0.074c-0.172 0.172 -0.172 0.172 -0.262 0.172" style="fill:#299db0"/><path class="s5" d="M27.353 50.528c0 -0.152 0.053 -0.233 0.123 -0.369 0.049 -0.18 0.045 -0.36 0.045 -0.545q0 -0.045 -0.004 -0.094v-0.221c0.127 0.127 0.131 0.242 0.135 0.414 0 0.311 -0.106 0.569 -0.299 0.815"/><path d="M14.659 26.124c-0.164 -0.135 -0.242 -0.287 -0.287 -0.491q-0.012 -0.246 0 -0.491h0.041q0.012 0.066 0.025 0.135 0.012 0.09 0.029 0.176l0.016 0.09c0.033 0.184 0.086 0.332 0.176 0.5z" style="fill:#35a0b2"/><path d="m45.328 45.738 -0.041 -0.123 0.287 -0.287 0.123 0.041z" style="fill:#239aae"/><path d="M26.861 50.856v-0.082q0.049 -0.004 0.098 -0.012c0.111 -0.016 0.111 -0.016 0.152 -0.106 0.016 -0.041 0.016 -0.041 0.037 -0.086 0.086 -0.07 0.086 -0.07 0.164 -0.123 -0.012 0.143 -0.053 0.172 -0.16 0.274 -0.18 0.135 -0.18 0.135 -0.291 0.135" style="fill:#1895aa"/><path d="m47.294 43.24 -0.041 -0.082c0.037 -0.082 0.037 -0.082 0.094 -0.18 0.025 -0.045 0.025 -0.045 0.053 -0.094 0.053 -0.09 0.115 -0.176 0.18 -0.258l0.082 0.041c-0.123 0.188 -0.242 0.377 -0.369 0.573" style="fill:#2899ac"/><path d="M49.136 39.678c-0.049 -0.164 -0.025 -0.25 0.041 -0.409q0.057 -0.102 0.123 -0.205c0.041 0.082 0.041 0.082 0 0.205l-0.057 0.147q-0.029 0.074 -0.061 0.147 -0.02 0.057 -0.045 0.115" style="fill:#2b9bae"/><path d="M48.563 40.988c-0.057 -0.172 0.008 -0.25 0.082 -0.409l0.041 -0.082h0.082c-0.053 0.172 -0.119 0.332 -0.205 0.491" style="fill:#2599ac"/><path d="M16.665 26.042c-0.041 -0.082 -0.041 -0.082 -0.012 -0.205 0.053 -0.123 0.053 -0.123 0.217 -0.205 -0.07 0.135 -0.135 0.27 -0.205 0.409" style="fill:#2398ad"/><path d="M48.809 40.456c-0.045 -0.131 -0.045 -0.16 0 -0.287 0.066 -0.094 0.066 -0.094 0.123 -0.164 -0.02 0.168 -0.037 0.307 -0.123 0.45" style="fill:#2196aa"/><path class="s5" d="M40.578 49.464v-0.123c0.115 -0.066 0.115 -0.066 0.246 -0.123l0.123 0.041c-0.123 0.07 -0.242 0.135 -0.369 0.205"/></svg>