<svg version="1.2" xmlns="http://www.w3.org/2000/svg" viewBox="0 0 128 128" width="128" height="128"><style>.s5{fill:#2c9caf}</style><path d="M97.854 114.266h-0.778c-1.056 0 -2.096 -0.058 -3.144 -0.188 -0.082 -0.008 -0.082 -0.008 -0.172 -0.024q-0.54 -0.066 -1.08 -0.156c-0.082 -0.008 -0.082 -0.008 -0.164 -0.024a35.2 35.2 0 0 1 -5.208 -1.212q-0.238 -0.082 -0.484 -0.148 -0.5 -0.156 -1 -0.32l-0.238 -0.082c-2.694 -0.884 -5.306 -1.99 -7.87 -3.194q-0.082 -0.04 -0.164 -0.074a62 62 0 0 1 -3.792 -1.932q-0.344 -0.188 -0.688 -0.368a62 62 0 0 1 -3.39 -1.966q-0.41 -0.254 -0.818 -0.492a62 62 0 0 1 -3.456 -2.228l-1.114 -0.738c-1.22 -0.81 -2.4 -1.67 -3.578 -2.538q-0.294 -0.222 -0.598 -0.442c-0.738 -0.54 -1.458 -1.08 -2.162 -1.646l-0.418 -0.328q-1.028 -0.798 -2.03 -1.622 -0.196 -0.164 -0.394 -0.32a132 132 0 0 1 -2.58 -2.178l-0.574 -0.492a52 52 0 0 1 -1.688 -1.498q-0.278 -0.262 -0.566 -0.508c-0.426 -0.368 -0.836 -0.754 -1.244 -1.13l-0.458 -0.426q-0.788 -0.722 -1.54 -1.482a8 8 0 0 0 -0.492 -0.45c-0.368 -0.32 -0.704 -0.656 -1.048 -1q-0.098 -0.09 -0.188 -0.188 -0.204 -0.196 -0.402 -0.402 -0.304 -0.304 -0.606 -0.598 -0.196 -0.196 -0.384 -0.394l-0.18 -0.18a18 18 0 0 1 -0.942 -1.016c-0.222 -0.254 -0.466 -0.484 -0.704 -0.72a16 16 0 0 1 -1 -1.064c-0.246 -0.278 -0.508 -0.548 -0.762 -0.818q-0.54 -0.576 -1.056 -1.162l-0.492 -0.54q-0.38 -0.428 -0.738 -0.868 -0.38 -0.466 -0.786 -0.91c-0.328 -0.36 -0.638 -0.728 -0.95 -1.114a32 32 0 0 0 -0.68 -0.794 38 38 0 0 1 -1.172 -1.442q-0.36 -0.466 -0.728 -0.918 -0.598 -0.746 -1.18 -1.506 -0.222 -0.286 -0.434 -0.574a60 60 0 0 1 -1.712 -2.31l-0.492 -0.672a114 114 0 0 1 -1.738 -2.502l-0.14 -0.204c-3.856 -5.716 -7.296 -11.768 -11.324 -22.808q-0.066 -0.246 -0.14 -0.492a46 46 0 0 1 -1.334 -6.88c-0.016 -0.114 -0.016 -0.114 -0.024 -0.23 -0.09 -0.77 -0.074 -1.548 -0.082 -2.326v-0.226c0.008 -1.13 0.04 -2.22 0.238 -3.334l0.082 -0.524c0.246 -1.58 0.786 -3.152 1.506 -4.578l0.082 -0.172c0.664 -1.286 1.54 -2.392 2.538 -3.432q0.074 -0.074 0.14 -0.156c1.982 -2.096 4.88 -3.276 7.64 -3.858q0.09 -0.016 0.18 -0.04 0.71 -0.15 1.434 -0.212 0.114 -0.008 0.23 -0.024c0.836 -0.066 1.67 -0.082 2.514 -0.082h0.246c1.516 0.008 2.99 0.132 4.488 0.36q0.132 0.016 0.262 0.04c4.75 0.696 9.336 2.466 13.692 4.43l0.18 0.082c1.498 0.672 1.498 0.672 1.9 1.344q0.05 0.074 0.098 0.156c0.312 0.63 0.376 1.31 0.164 1.99 -0.336 0.728 -0.81 1.262 -1.556 1.564 -0.86 0.286 -1.744 0.05 -2.53 -0.336l-0.156 -0.082c-0.238 -0.114 -0.466 -0.23 -0.704 -0.336l-0.352 -0.172c-1.622 -0.786 -3.324 -1.376 -5.02 -1.966q-0.172 -0.058 -0.344 -0.122a37.2 37.2 0 0 0 -7.93 -1.76q-0.098 -0.016 -0.204 -0.024c-0.68 -0.082 -1.368 -0.074 -2.056 -0.074q-0.098 -0.008 -0.204 -0.008c-2.826 0.008 -6.02 0.484 -8.182 2.482q-0.114 0.106 -0.238 0.212c-1.876 1.752 -2.694 4.258 -2.956 6.748q-0.008 0.106 -0.024 0.212c-0.254 2.58 0.032 5.258 0.63 7.772l0.132 0.582c0.696 3.406 2.006 6.708 3.44 9.86l0.132 0.286a74 74 0 0 0 3.472 6.756l0.164 0.286c0.712 1.228 1.442 2.448 2.212 3.644q0.114 0.18 0.23 0.352a114 114 0 0 0 4.03 5.872l0.14 0.188q0.982 1.36 2.022 2.67 0.18 0.238 0.368 0.474 0.852 1.082 1.728 2.154l0.14 0.172c0.614 0.754 1.236 1.49 1.868 2.228q0.188 0.212 0.368 0.434 0.704 0.818 1.442 1.614 0.246 0.27 0.484 0.548c0.344 0.402 0.704 0.786 1.064 1.18q0.18 0.188 0.352 0.384 0.304 0.328 0.614 0.656 0.132 0.148 0.27 0.294a100 100 0 0 0 3.062 3.144q0.36 0.36 0.72 0.728 0.286 0.278 0.574 0.566l0.262 0.262c0.434 0.442 0.876 0.876 1.344 1.278q0.242 0.2 0.458 0.434c0.254 0.254 0.508 0.492 0.778 0.72q0.416 0.372 0.818 0.754 0.622 0.592 1.27 1.146l0.566 0.484 0.148 0.132q0.434 0.368 0.86 0.754 0.516 0.466 1.056 0.892 0.394 0.32 0.778 0.656 0.664 0.556 1.344 1.098l0.132 0.098 0.72 0.574q0.278 0.222 0.566 0.442c1.278 1.008 2.572 1.99 3.898 2.94q0.246 0.18 0.5 0.36c1.09 0.81 2.228 1.556 3.358 2.302q0.41 0.27 0.818 0.548c0.582 0.384 1.162 0.77 1.76 1.138q0.106 0.066 0.222 0.132l0.638 0.394 0.164 0.098c5.274 3.226 10.86 5.97 16.788 7.764q0.122 0.04 0.246 0.074a38 38 0 0 0 4.544 1.048q0.344 0.058 0.696 0.106 0.148 0.024 0.304 0.04c0.9 0.132 1.802 0.148 2.71 0.148q0.36 0 0.72 0.008c2.956 0.008 6.052 -0.664 8.254 -2.752 2.236 -2.228 2.932 -5.47 2.948 -8.526a24 24 0 0 0 -0.566 -5.356l-0.114 -0.582c-0.762 -4.094 -2.366 -8.082 -4.168 -11.826a2.66 2.66 0 0 1 -0.05 -1.924c0.294 -0.728 0.754 -1.162 1.474 -1.49 0.656 -0.212 1.334 -0.204 1.966 0.09 0.54 0.304 0.9 0.646 1.188 1.204q0.04 0.09 0.09 0.18c1.278 2.546 2.252 5.25 3.178 7.936l0.082 0.246c0.704 2.048 1.188 4.176 1.556 6.306q0.016 0.106 0.04 0.222 0.114 0.704 0.204 1.416 0.016 0.098 0.024 0.196c0.598 4.782 -0.016 9.95 -2.972 13.89 -0.09 0.114 -0.09 0.114 -0.172 0.238 -2.53 3.234 -6.314 4.988 -10.326 5.496a22 22 0 0 1 -2.612 0.106" style="fill:#010101"/><path d="M76.914 99.862a2.86 2.86 0 0 1 -1.244 -1.588c-0.098 -0.786 -0.016 -1.474 0.442 -2.13 0.384 -0.466 0.794 -0.704 1.326 -0.966q0.254 -0.122 0.508 -0.254 0.132 -0.058 0.262 -0.122a32 32 0 0 0 5.896 -3.98q0.114 -0.098 0.238 -0.188c0.696 -0.574 1.326 -1.196 1.958 -1.826l0.132 -0.132c0.574 -0.566 1.106 -1.154 1.606 -1.786q0.114 -0.14 0.23 -0.27c3.62 -4.144 5.864 -9.458 6.978 -14.798q0.016 -0.098 0.04 -0.196 0.12 -0.64 0.204 -1.278l0.032 -0.246a32.6 32.6 0 0 0 -0.032 -8.926l-0.032 -0.238c-0.426 -3.088 -1.416 -6.2 -2.752 -9.016l-0.114 -0.246a32 32 0 0 0 -1.85 -3.358q-0.05 -0.082 -0.106 -0.164a30 30 0 0 0 -2.842 -3.768q-0.098 -0.106 -0.196 -0.222 -0.27 -0.294 -0.54 -0.598 -0.114 -0.122 -0.222 -0.246a20 20 0 0 0 -1.794 -1.794l-0.466 -0.41a31.4 31.4 0 0 0 -5.79 -4.02l-0.212 -0.114c-3.088 -1.704 -6.446 -2.818 -9.91 -3.432q-0.09 -0.008 -0.18 -0.024c-1.76 -0.312 -3.522 -0.394 -5.314 -0.394h-0.312c-1.67 0.008 -3.3 0.09 -4.954 0.36l-0.294 0.05a32.4 32.4 0 0 0 -11.99 4.618q-0.082 0.05 -0.164 0.106a32 32 0 0 0 -4.324 3.334q-0.238 0.212 -0.484 0.418a20 20 0 0 0 -2.154 2.202l-0.188 0.222a30 30 0 0 0 -2.76 3.71l-0.164 0.246c-0.606 0.966 -1.146 1.974 -1.662 2.99 -0.418 0.818 -0.81 1.416 -1.696 1.76 -0.196 0.066 -0.196 0.066 -0.41 0.082l-0.172 0.016a2.92 2.92 0 0 1 -1.908 -0.606 2.88 2.88 0 0 1 -0.818 -2.096c0.058 -0.458 0.238 -0.836 0.442 -1.244l0.196 -0.402c1.286 -2.67 2.972 -5.118 4.88 -7.378q0.05 -0.066 0.106 -0.132c0.656 -0.77 1.334 -1.498 2.056 -2.212l0.484 -0.484c0.492 -0.492 0.99 -0.982 1.532 -1.434 0.074 -0.066 0.074 -0.066 0.156 -0.132 4.456 -3.784 9.86 -6.65 15.568 -7.976q0.09 -0.024 0.18 -0.04c0.426 -0.106 0.86 -0.196 1.294 -0.286 0.09 -0.016 0.09 -0.016 0.188 -0.04a36 36 0 0 1 2.908 -0.466l0.172 -0.016c1.416 -0.18 2.834 -0.23 4.258 -0.238h0.254c2.326 0.008 4.586 0.246 6.88 0.68q0.148 0.024 0.294 0.058a36.8 36.8 0 0 1 15.592 7.15l0.222 0.172a42 42 0 0 1 3.652 3.284q0.058 0.058 0.122 0.114c0.458 0.458 0.91 0.926 1.326 1.424l0.212 0.246c0.614 0.72 1.188 1.458 1.752 2.212l0.132 0.18a34 34 0 0 1 3.39 5.626q0.082 0.18 0.172 0.352c0.868 1.76 1.532 3.596 2.122 5.47q0.032 0.114 0.074 0.23c0.548 1.768 0.884 3.578 1.138 5.414 0.016 0.09 0.016 0.09 0.024 0.18q0.04 0.27 0.074 0.54 0.024 0.148 0.04 0.312c0.106 0.926 0.14 1.868 0.14 2.8q0 0.082 0.008 0.164v1.424c0 1.818 -0.032 3.596 -0.352 5.396 -0.024 0.156 -0.024 0.156 -0.058 0.32a40 40 0 0 1 -2.89 9.508q-0.05 0.106 -0.098 0.222a32 32 0 0 1 -1.704 3.218q-0.066 0.106 -0.122 0.212c-1.04 1.794 -2.244 3.44 -3.562 5.028l-0.196 0.246c-1.016 1.22 -2.112 2.424 -3.316 3.456 -0.278 0.238 -0.548 0.492 -0.818 0.746 -0.344 0.304 -0.712 0.59 -1.072 0.876q-0.098 0.074 -0.196 0.156c-7.034 5.528 -7.034 5.528 -9.45 4.382" style="fill:#0197af"/><path d="m51.044 101.532 -0.196 -0.066a36 36 0 0 1 -3.84 -1.556l-0.246 -0.114c-2.326 -1.09 -4.512 -2.49 -6.552 -4.062q-0.074 -0.058 -0.156 -0.114a26 26 0 0 1 -1.696 -1.416q-0.254 -0.238 -0.516 -0.466c-0.9 -0.786 -1.786 -1.588 -2.564 -2.498q-0.268 -0.308 -0.548 -0.606a34 34 0 0 1 -5.414 -8.066q-0.14 -0.304 -0.294 -0.606a38 38 0 0 1 -2.078 -5.31q-0.024 -0.082 -0.058 -0.172c-0.27 -0.852 -0.442 -1.63 -0.016 -2.456 0.36 -0.606 0.81 -1.056 1.474 -1.318a2.78 2.78 0 0 1 2.146 0.278c0.884 0.598 1.106 1.524 1.392 2.506 0.426 1.498 1.024 2.948 1.696 4.356l0.098 0.212a30.6 30.6 0 0 0 3.996 6.256q0.058 0.066 0.114 0.14c0.802 0.966 1.654 1.884 2.546 2.784q0.106 0.106 0.212 0.222c0.434 0.426 0.876 0.818 1.344 1.196q0.246 0.196 0.474 0.402c0.696 0.598 1.424 1.13 2.186 1.646q0.074 0.058 0.156 0.106a32 32 0 0 0 8.222 4.038c0.918 0.304 1.646 0.664 2.13 1.54 0.294 0.646 0.328 1.278 0.09 1.95 -0.344 0.762 -0.91 1.22 -1.662 1.564 -0.868 0.196 -1.622 -0.082 -2.44 -0.368" style="fill:#0297af"/><path d="M84.842 90.166c0.132 -0.344 0.384 -0.574 0.638 -0.828q0.074 -0.066 0.14 -0.14l0.294 -0.294 0.458 -0.458 0.286 -0.286q0.066 -0.066 0.14 -0.132c0.32 -0.32 0.32 -0.32 0.5 -0.32v-0.164l0.164 0.082c-0.442 0.532 -0.926 1.024 -1.408 1.506l-0.394 0.394q-0.122 0.122 -0.246 0.254c-0.114 0.106 -0.114 0.106 -0.23 0.222 -0.18 0.164 -0.18 0.164 -0.344 0.164" style="fill:#e3fbfc"/><path d="M88.772 93.278c0.122 -0.286 0.286 -0.466 0.5 -0.68 0.098 -0.098 0.098 -0.098 0.204 -0.196q0.098 -0.106 0.204 -0.204l0.212 -0.212q0.254 -0.254 0.516 -0.508l0.164 0.082q-0.54 0.638 -1.13 1.228l-0.148 0.148c-0.344 0.344 -0.344 0.344 -0.524 0.344" style="fill:#299db0"/><path class="s5" d="M54.706 101.056c0 -0.304 0.106 -0.466 0.246 -0.738 0.098 -0.36 0.09 -0.72 0.09 -1.09q0 -0.09 -0.008 -0.188v-0.442c0.254 0.254 0.262 0.484 0.27 0.828 0 0.622 -0.212 1.138 -0.598 1.63"/><path d="M29.318 52.248a1.6 1.6 0 0 1 -0.574 -0.982q-0.024 -0.492 0 -0.982h0.082l0.05 0.27q0.024 0.18 0.058 0.352l0.032 0.18c0.066 0.368 0.172 0.664 0.352 1z" style="fill:#35a0b2"/><path d="m90.656 91.476 -0.082 -0.246 0.574 -0.574 0.246 0.082z" style="fill:#239aae"/><path d="M53.722 101.712v-0.164q0.098 -0.008 0.196 -0.024c0.222 -0.032 0.222 -0.032 0.304 -0.212 0.032 -0.082 0.032 -0.082 0.074 -0.172 0.172 -0.14 0.172 -0.14 0.328 -0.246 -0.024 0.286 -0.106 0.344 -0.32 0.548 -0.36 0.27 -0.36 0.27 -0.582 0.27" style="fill:#1895aa"/><path d="m94.588 86.48 -0.082 -0.164c0.074 -0.164 0.074 -0.164 0.188 -0.36l0.106 -0.188a4 4 0 0 1 0.36 -0.516l0.164 0.082c-0.246 0.376 -0.484 0.754 -0.738 1.146" style="fill:#2899ac"/><path d="M98.272 79.356c-0.098 -0.328 -0.05 -0.5 0.082 -0.818q0.114 -0.204 0.246 -0.41c0.082 0.164 0.082 0.164 0 0.41l-0.114 0.294q-0.058 0.148 -0.122 0.294 -0.04 0.114 -0.09 0.23" style="fill:#2b9bae"/><path d="M97.126 81.976c-0.114 -0.344 0.016 -0.5 0.164 -0.818l0.082 -0.164h0.164a5.4 5.4 0 0 1 -0.41 0.982" style="fill:#2599ac"/><path d="M33.33 52.084c-0.082 -0.164 -0.082 -0.164 -0.024 -0.41 0.106 -0.246 0.106 -0.246 0.434 -0.41 -0.14 0.27 -0.27 0.54 -0.41 0.818" style="fill:#2398ad"/><path d="M97.618 80.912c-0.09 -0.262 -0.09 -0.32 0 -0.574 0.132 -0.188 0.132 -0.188 0.246 -0.328 -0.04 0.336 -0.074 0.614 -0.246 0.9" style="fill:#2196aa"/><path class="s5" d="M81.156 98.928v-0.246c0.23 -0.132 0.23 -0.132 0.492 -0.246l0.246 0.082c-0.246 0.14 -0.484 0.27 -0.738 0.41"/></svg>